<?xml version="1.0" encoding="UTF-8"?>
<!-- Do not edit this file with editors other than diagrams.net -->
<!DOCTYPE svg PUBLIC "-//W3C//DTD SVG 1.1//EN" "http://www.w3.org/Graphics/SVG/1.1/DTD/svg11.dtd">
<svg xmlns="http://www.w3.org/2000/svg" version="1.1" width="521px" height="301px" viewBox="-0.5 -0.5 521 301"
     style="background-color: rgb(24, 46, 62);"><defs><clipPath id="mx-clip-4-30-112-30-0"><rect x="4" y="30" width="112" height="30"/></clipPath><clipPath id="mx-clip-4-60-112-30-0"><rect x="4" y="60" width="112" height="30"/></clipPath><clipPath id="mx-clip-4-90-112-30-0"><rect x="4" y="90" width="112" height="30"/></clipPath><clipPath id="mx-clip-4-120-112-30-0"><rect x="4" y="120" width="112" height="30"/></clipPath><clipPath id="mx-clip-4-150-112-30-0"><rect x="4" y="150" width="112" height="30"/></clipPath><clipPath id="mx-clip-4-180-112-30-0"><rect x="4" y="180" width="112" height="30"/></clipPath><clipPath id="mx-clip-4-210-112-30-0"><rect x="4" y="210" width="112" height="30"/></clipPath><clipPath id="mx-clip-204-30-112-30-0"><rect x="204" y="30" width="112" height="30"/></clipPath><clipPath id="mx-clip-204-60-112-30-0"><rect x="204" y="60" width="112" height="30"/></clipPath><clipPath id="mx-clip-204-90-112-30-0"><rect x="204" y="90" width="112" height="30"/></clipPath><clipPath id="mx-clip-204-120-112-30-0"><rect x="204" y="120" width="112" height="30"/></clipPath><clipPath id="mx-clip-204-150-112-30-0"><rect x="204" y="150" width="112" height="30"/></clipPath><clipPath id="mx-clip-204-180-112-30-0"><rect x="204" y="180" width="112" height="30"/></clipPath><clipPath id="mx-clip-204-210-112-30-0"><rect x="204" y="210" width="112" height="30"/></clipPath><clipPath id="mx-clip-204-240-112-30-0"><rect x="204" y="240" width="112" height="30"/></clipPath><clipPath id="mx-clip-404-30-112-30-0"><rect x="404" y="30" width="112" height="30"/></clipPath><clipPath id="mx-clip-404-60-112-30-0"><rect x="404" y="60" width="112" height="30"/></clipPath><clipPath id="mx-clip-404-90-112-30-0"><rect x="404" y="90" width="112" height="30"/></clipPath><clipPath id="mx-clip-404-120-112-30-0"><rect x="404" y="120" width="112" height="30"/></clipPath><clipPath id="mx-clip-404-150-112-30-0"><rect x="404" y="150" width="112" height="30"/></clipPath><clipPath id="mx-clip-404-180-112-30-0"><rect x="404" y="180" width="112" height="30"/></clipPath><clipPath id="mx-clip-404-210-112-30-0"><rect x="404" y="210" width="112" height="30"/></clipPath><clipPath id="mx-clip-204-270-112-30-0"><rect x="204" y="270" width="112" height="30"/></clipPath></defs><g><path d="M 0 30 L 0 0 L 120 0 L 120 30" fill="#f5f5f5" stroke="#666666" stroke-miterlimit="10" pointer-events="all"/><path d="M 0 30 L 0 240 L 120 240 L 120 30" fill="none" stroke="#666666" stroke-miterlimit="10" pointer-events="none"/><path d="M 0 30 L 120 30" fill="none" stroke="#666666" stroke-miterlimit="10" pointer-events="none"/><g fill="#333333" font-family="Helvetica" pointer-events="none" text-anchor="middle" font-size="15px"><text x="59.5" y="21">User</text></g><rect x="0" y="30" width="120" height="30" fill="#1ba1e2" stroke="#006eaf" pointer-events="none"/><g fill="#ffffff" font-family="Helvetica" pointer-events="none" clip-path="url(#mx-clip-4-30-112-30-0)" font-size="12px"><text x="5.5" y="49.5">ID</text></g><rect x="0" y="60" width="120" height="30" fill="#1ba1e2" stroke="#006eaf" pointer-events="none"/><g fill="#ffffff" font-family="Helvetica" pointer-events="none" clip-path="url(#mx-clip-4-60-112-30-0)" font-size="12px"><text x="5.5" y="79.5">Login</text></g><rect x="0" y="90" width="120" height="30" fill="#1ba1e2" stroke="#006eaf" pointer-events="none"/><g fill="#ffffff" font-family="Helvetica" pointer-events="none" clip-path="url(#mx-clip-4-90-112-30-0)" font-size="12px"><text x="5.5" y="109.5">Password</text></g><rect x="0" y="120" width="120" height="30" fill="#1ba1e2" stroke="#006eaf" pointer-events="none"/><g fill="#ffffff" font-family="Helvetica" pointer-events="none" clip-path="url(#mx-clip-4-120-112-30-0)" font-size="12px"><text x="5.5" y="139.5">Display name</text></g><rect x="0" y="150" width="120" height="30" fill="#1ba1e2" stroke="#006eaf" pointer-events="none"/><g fill="#ffffff" font-family="Helvetica" pointer-events="none" clip-path="url(#mx-clip-4-150-112-30-0)" font-size="12px"><text x="5.5" y="169.5">Rating (like/dislike)</text></g><rect x="0" y="180" width="120" height="30" fill="#1ba1e2" stroke="#006eaf" pointer-events="none"/><g fill="#ffffff" font-family="Helvetica" pointer-events="none" clip-path="url(#mx-clip-4-180-112-30-0)" font-size="12px"><text x="5.5" y="199.5">Created at</text></g><rect x="0" y="210" width="120" height="30" fill="#1ba1e2" stroke="#006eaf" pointer-events="none"/><g fill="#ffffff" font-family="Helvetica" pointer-events="none" clip-path="url(#mx-clip-4-210-112-30-0)" font-size="12px"><text x="5.5" y="229.5">Posts</text></g><path d="M 200 30 L 200 0 L 320 0 L 320 30" fill="#f5f5f5" stroke="#666666" stroke-miterlimit="10" pointer-events="none"/><path d="M 200 30 L 200 270 L 320 270 L 320 30" fill="none" stroke="#666666" stroke-miterlimit="10" pointer-events="none"/><path d="M 200 30 L 320 30" fill="none" stroke="#666666" stroke-miterlimit="10" pointer-events="none"/><g fill="#333333" font-family="Helvetica" pointer-events="none" text-anchor="middle" font-size="15px"><text x="259.5" y="21">Post</text></g><rect x="200" y="30" width="120" height="30" fill="#1ba1e2" stroke="#006eaf" pointer-events="none"/><g fill="#ffffff" font-family="Helvetica" pointer-events="none" clip-path="url(#mx-clip-204-30-112-30-0)" font-size="12px"><text x="205.5" y="49.5">ID</text></g><rect x="200" y="60" width="120" height="30" fill="#1ba1e2" stroke="#006eaf" pointer-events="none"/><g fill="#ffffff" font-family="Helvetica" pointer-events="none" clip-path="url(#mx-clip-204-60-112-30-0)" font-size="12px"><text x="205.5" y="79.5">Title</text></g><rect x="200" y="90" width="120" height="30" fill="#1ba1e2" stroke="#006eaf" pointer-events="none"/><g fill="#ffffff" font-family="Helvetica" pointer-events="none" clip-path="url(#mx-clip-204-90-112-30-0)" font-size="12px"><text x="205.5" y="109.5">Content</text></g><rect x="200" y="120" width="120" height="30" fill="#1ba1e2" stroke="#006eaf" pointer-events="none"/><g fill="#ffffff" font-family="Helvetica" pointer-events="none" clip-path="url(#mx-clip-204-120-112-30-0)" font-size="12px"><text x="205.5" y="139.5">Image/Video link</text></g><rect x="200" y="150" width="120" height="30" fill="#1ba1e2" stroke="#006eaf" pointer-events="none"/><g fill="#ffffff" font-family="Helvetica" pointer-events="none" clip-path="url(#mx-clip-204-150-112-30-0)" font-size="12px"><text x="205.5" y="169.5">Like</text></g><rect x="200" y="180" width="120" height="30" fill="#1ba1e2" stroke="#006eaf" pointer-events="none"/><g fill="#ffffff" font-family="Helvetica" pointer-events="none" clip-path="url(#mx-clip-204-180-112-30-0)" font-size="12px"><text x="205.5" y="199.5">Dislike</text></g><rect x="200" y="210" width="120" height="30" fill="#1ba1e2" stroke="#006eaf" pointer-events="none"/><g fill="#ffffff" font-family="Helvetica" pointer-events="none" clip-path="url(#mx-clip-204-210-112-30-0)" font-size="12px"><text x="205.5" y="229.5">Comments</text></g><rect x="200" y="240" width="120" height="30" fill="#1ba1e2" stroke="#006eaf" pointer-events="none"/><g fill="#ffffff" font-family="Helvetica" pointer-events="none" clip-path="url(#mx-clip-204-240-112-30-0)" font-size="12px"><text x="205.5" y="259.5">Created at</text></g><path d="M 400 30 L 400 0 L 520 0 L 520 30" fill="#f5f5f5" stroke="#666666" stroke-miterlimit="10" pointer-events="none"/><path d="M 400 30 L 400 240 L 520 240 L 520 30" fill="none" stroke="#666666" stroke-miterlimit="10" pointer-events="none"/><path d="M 400 30 L 520 30" fill="none" stroke="#666666" stroke-miterlimit="10" pointer-events="none"/><g fill="#333333" font-family="Helvetica" pointer-events="none" text-anchor="middle" font-size="15px"><text x="459.5" y="21">Comment</text></g><rect x="400" y="30" width="120" height="30" fill="#1ba1e2" stroke="#006eaf" pointer-events="none"/><g fill="#ffffff" font-family="Helvetica" pointer-events="none" clip-path="url(#mx-clip-404-30-112-30-0)" font-size="12px"><text x="405.5" y="49.5">ID</text></g><rect x="400" y="60" width="120" height="30" fill="#1ba1e2" stroke="#006eaf" pointer-events="none"/><g fill="#ffffff" font-family="Helvetica" pointer-events="none" clip-path="url(#mx-clip-404-60-112-30-0)" font-size="12px"><text x="405.5" y="79.5">Content</text></g><rect x="400" y="90" width="120" height="30" fill="#1ba1e2" stroke="#006eaf" pointer-events="none"/><g fill="#ffffff" font-family="Helvetica" pointer-events="none" clip-path="url(#mx-clip-404-90-112-30-0)" font-size="12px"><text x="405.5" y="109.5">Image/Video link</text></g><rect x="400" y="120" width="120" height="30" fill="#1ba1e2" stroke="#006eaf" pointer-events="none"/><g fill="#ffffff" font-family="Helvetica" pointer-events="none" clip-path="url(#mx-clip-404-120-112-30-0)" font-size="12px"><text x="405.5" y="139.5">Like</text></g><rect x="400" y="150" width="120" height="30" fill="#1ba1e2" stroke="#006eaf" pointer-events="none"/><g fill="#ffffff" font-family="Helvetica" pointer-events="none" clip-path="url(#mx-clip-404-150-112-30-0)" font-size="12px"><text x="405.5" y="169.5">Dislike</text></g><rect x="400" y="180" width="120" height="30" fill="#1ba1e2" stroke="#006eaf" pointer-events="none"/><g fill="#ffffff" font-family="Helvetica" pointer-events="none" clip-path="url(#mx-clip-404-180-112-30-0)" font-size="12px"><text x="405.5" y="199.5">Created at</text></g><rect x="400" y="210" width="120" height="30" fill="#1ba1e2" stroke="#006eaf" pointer-events="none"/><g fill="#ffffff" font-family="Helvetica" pointer-events="none" clip-path="url(#mx-clip-404-210-112-30-0)" font-size="12px"><text x="405.5" y="229.5">Author ID</text></g><path d="M 120 225 L 150 225 Q 160 225 160 215 L 160 145 Q 160 135 170 135 L 193.63 135" fill="none" stroke="#ffffff" stroke-miterlimit="10" pointer-events="none"/><path d="M 198.88 135 L 191.88 138.5 L 193.63 135 L 191.88 131.5 Z" fill="#ffffff" stroke="#ffffff" stroke-miterlimit="10" pointer-events="none"/><path d="M 320 225 L 350 225 Q 360 225 360 215 L 360 130 Q 360 120 370 120 L 393.63 120" fill="none" stroke="#ffffff" stroke-miterlimit="10" pointer-events="none"/><path d="M 398.88 120 L 391.88 123.5 L 393.63 120 L 391.88 116.5 Z" fill="#ffffff" stroke="#ffffff" stroke-miterlimit="10" pointer-events="none"/><rect x="200" y="270" width="120" height="30" fill="#1ba1e2" stroke="#006eaf" pointer-events="none"/><g fill="#ffffff" font-family="Helvetica" pointer-events="none" clip-path="url(#mx-clip-204-270-112-30-0)" font-size="12px"><text x="205.5" y="289.5">Author ID</text></g></g></svg>